<svg xmlns="http://www.w3.org/2000/svg" xmlns:xlink="http://www.w3.org/1999/xlink" viewBox="0 0 312.74 247.2"><defs><style>.cls-1{fill:url(#linear-gradient);}.cls-2{fill:url(#linear-gradient-2);}</style><linearGradient id="linear-gradient" x1="209.96" y1="200.2" x2="260.96" y2="59.8" gradientUnits="userSpaceOnUse"><stop offset="0" stop-color="#fcb224"/><stop offset="1" stop-color="#f48c3a"/></linearGradient><linearGradient id="linear-gradient-2" x1="14.37" y1="122.11" x2="232.59" y2="122.11" xlink:href="#linear-gradient"/></defs><g id="Layer_2" data-name="Layer 2"><g id="Layer_1-2" data-name="Layer 1"><path d="M306.2,102.9C297.92,76.58,281,57.64,256.63,45.09c-20.48-10.57-42.46-17.44-63.95-25.55C180.15,14.82,168.13,9.07,158,0h-3.13c-3.72,2.08-7.47,4.13-11.16,6.26-10.91,6.3-21.94,12.31-33.72,16.86-18.14,7-36.82,12.71-54.23,21.52C43,51.1,31.64,59.41,22.81,70.81c-10.8,13.93-17,29.82-20.47,47A118.13,118.13,0,0,0,4.07,171.9c5.86,22.36,17.22,41.59,34.78,56.89,8.47,7.39,17.76,13.52,28.57,17,5.94,1.93,6.4,1.55,6.4-4.54,0-21.07,0-42.16-.06-63.25,0-2.8.64-3.88,3.66-3.89,5.72,0,11.43-.5,17.15-.82a94.5,94.5,0,0,0,23-3.83c7.52-2.35,15-4.73,22.94-7.21-.81,4.81-3.58,8.28-4.56,12.41-.44,1.9-1.41,4,.15,5.52s3.61.42,5.44-.3c11.1-4.39,22.26-8.59,33.31-13.1,10.15-4.13,19.91-8.91,26.9-17.88a51.29,51.29,0,0,0,10-23.74c.24-1.49.37-3,1.95-3.48s1.89,1,2.67,1.83c4.39,4.4,8.83,8.75,13.15,13.23,5.87,6.11,11.45,12.11,11.09,21.76-.46,12.33.18,24.71.2,37.06q.06,24.22-.15,48.42c0,2.83.71,3.51,3.54,3,9.11-1.49,16.72-5.92,24-11.25q36.41-26.48,43-70.89A137.69,137.69,0,0,0,306.2,102.9ZM136.75,82.67a250.61,250.61,0,0,0-46.81,31.05c-9,7.67-18.19,15.35-24.79,25.41a34.33,34.33,0,0,0-6,19.55c.22,16,1.41,32,.73,47.95-.24,5.59-.5,11.16-.6,16.74,0,2.32-1.14,2.59-2.58,1.43-6.19-5-12.51-9.92-17.86-15.87-8.91-9.94-14.72-21.68-19-34.16a99.38,99.38,0,0,1-5.46-31.65c-.23-15.56,3-30.28,8.67-44.57C30,81.12,41.59,68,58.81,59.91,75.74,52,93.27,45.53,110.44,38.23c13.19-5.59,26.17-11.67,39.15-17.74,4.6-2.14,8.7-2.43,13.48-.2,15.08,7,30.81,12.55,45.9,19.59,6.83,3.18,13.9,5.84,20.89,8.68,1.08.44,2.14.75,2.73,2.18-9.06,2-18,3.79-26.86,6.09C181.85,63,158.7,71.21,136.75,82.67Zm161.68,64.05c-.63,17.75-4.63,34.73-13.38,50.33a80.45,80.45,0,0,1-26,28.2,40.52,40.52,0,0,1-3.76,1.9c0-21.22,0-42,0-62.79,0-3.9-.29-7.79-.37-11.69-.2-9.85-6.39-16.58-12.33-23.34-12.6-14.31-27.46-25.88-43.92-35.46q-9.31-5.4-18.49-11c-.75-.47-2.26-.54-2.12-1.88s1.28-1.54,2.52-1.88c16.58-4.68,33-9.83,50.14-12.44,7.59-1.16,15.16-2.4,22.83-3.12,5.17-.49,9.22,1.75,12.69,4.67C280.72,80.48,290,96.07,294.63,114.6A115.34,115.34,0,0,1,298.43,146.72Z"/><path class="cls-1" d="M298.43,146.72c-.63,17.75-4.63,34.73-13.38,50.33a80.45,80.45,0,0,1-26,28.2,40.52,40.52,0,0,1-3.76,1.9c0-21.22,0-42,0-62.79,0-3.9-.29-7.79-.37-11.69-.2-9.85-6.39-16.58-12.33-23.34-12.6-14.31-27.46-25.88-43.92-35.46q-9.31-5.4-18.49-11c-.75-.47-2.26-.54-2.12-1.88s1.28-1.54,2.52-1.88c16.58-4.68,33-9.83,50.14-12.44,7.59-1.16,15.16-2.4,22.83-3.12,5.17-.49,9.22,1.75,12.69,4.67C280.72,80.48,290,96.07,294.63,114.6A115.34,115.34,0,0,1,298.43,146.72Z"/><path class="cls-2" d="M232.59,50.74c-9.06,2-18,3.79-26.86,6.09-23.88,6.2-47,14.38-69,25.84a250.61,250.61,0,0,0-46.81,31.05c-9,7.67-18.19,15.35-24.79,25.41a34.33,34.33,0,0,0-6,19.55c.22,16,1.41,32,.73,47.95-.24,5.59-.5,11.16-.6,16.74,0,2.32-1.14,2.59-2.58,1.43-6.19-5-12.51-9.92-17.86-15.87-8.91-9.94-14.72-21.68-19-34.16a99.38,99.38,0,0,1-5.46-31.65c-.23-15.56,3-30.28,8.67-44.57C30,81.12,41.59,68,58.81,59.91,75.74,52,93.27,45.53,110.44,38.23c13.19-5.59,26.17-11.67,39.15-17.74,4.6-2.14,8.7-2.43,13.48-.2,15.08,7,30.81,12.55,45.9,19.59,6.83,3.18,13.9,5.84,20.89,8.68C230.94,49,232,49.31,232.59,50.74Z"/></g></g></svg>